<?xml version="1.0" encoding="UTF-8"?>
<!DOCTYPE svg PUBLIC "-//W3C//DTD SVG 1.1//EN" "http://www.w3.org/Graphics/SVG/1.1/DTD/svg11.dtd">
<svg xmlns="http://www.w3.org/2000/svg" version="1.1" width="469px" height="469px" style="shape-rendering:geometricPrecision; text-rendering:geometricPrecision; image-rendering:optimizeQuality; fill-rule:evenodd; clip-rule:evenodd" xmlns:xlink="http://www.w3.org/1999/xlink">
<g><path style="opacity:1" fill="#6c6c6c" d="M 190.5,11.5 C 193.414,12.9061 195.914,14.9061 198,17.5C 199.364,14.6367 201.53,12.6367 204.5,11.5C 207.144,12.741 207.977,14.741 207,17.5C 205.5,19 204,20.5 202.5,22C 205.887,24.0016 207.387,26.835 207,30.5C 205.412,32.9677 203.578,33.1343 201.5,31C 200.315,29.647 198.981,28.4803 197.5,27.5C 195.465,29.3722 193.298,31.0389 191,32.5C 187.303,31.0735 186.637,28.7402 189,25.5C 190.167,24.3333 191.333,23.1667 192.5,22C 190.226,20.2349 188.559,18.0682 187.5,15.5C 187.787,13.5567 188.787,12.2233 190.5,11.5 Z"/></g>
<g><path style="opacity:0.976" fill="#d5f8ec" d="M 258.5,46.5 C 255.833,48.8333 255.833,51.1667 258.5,53.5C 276.061,54.0411 293.727,54.8745 311.5,56C 331.743,64.8316 349.743,75.8316 365.5,89C 366.926,91.0454 367.926,93.2121 368.5,95.5C 368.5,96.1667 368.833,96.5 369.5,96.5C 371.292,97.3091 373.292,97.8091 375.5,98C 379.5,102.333 383.5,106.667 387.5,111C 371.456,111.181 355.456,111.681 339.5,112.5C 334.152,118.571 333.319,125.238 337,132.5C 340.04,135.966 343.874,137.3 348.5,136.5C 342.685,143.324 342.018,150.657 346.5,158.5C 345.167,158.833 345.167,159.167 346.5,159.5C 329.167,160.833 311.833,160.833 294.5,159.5C 295.833,159.167 295.833,158.833 294.5,158.5C 295.477,127.865 295.81,97.1981 295.5,66.5C 296.332,95.3304 296.832,124.33 297,153.5C 297.5,131.836 297.667,110.169 297.5,88.5C 311.391,91.7651 317.558,86.4318 316,72.5C 314.93,69.7583 313.43,67.2583 311.5,65C 306.167,64.6667 300.833,64.3333 295.5,64C 294.497,62.4542 293.497,62.2875 292.5,63.5C 291.833,63.5 291.167,63.5 290.5,63.5C 290.167,62.1667 289.833,62.1667 289.5,63.5C 271.876,64.1535 254.209,64.4868 236.5,64.5C 218.745,64.654 201.079,64.154 183.5,63C 180.178,58.7322 179.178,54.0655 180.5,49C 179.833,48.6667 179.167,48.3333 178.5,48C 210.891,39.217 243.557,38.217 276.5,45C 270.319,45.1724 264.319,45.6724 258.5,46.5 Z"/></g>
<g><path style="opacity:0.02" fill="#ddf9ef" d="M 174.5,49.5 C 175.251,48.4265 176.251,48.2599 177.5,49C 176.552,49.4828 175.552,49.6495 174.5,49.5 Z"/></g>
<g><path style="opacity:1" fill="#6e6f6e" d="M 258.5,46.5 C 274.503,46.3334 290.503,46.5001 306.5,47C 309.033,49.084 309.033,51.084 306.5,53C 290.503,53.4999 274.503,53.6666 258.5,53.5C 255.833,51.1667 255.833,48.8333 258.5,46.5 Z"/></g>
<g><path style="opacity:1" fill="#747474" d="M 314.5,46.5 C 317.187,46.3359 319.854,46.5026 322.5,47C 325.167,49 325.167,51 322.5,53C 319.833,53.6667 317.167,53.6667 314.5,53C 311.939,50.8441 311.939,48.6774 314.5,46.5 Z"/></g>
<g><path style="opacity:0.02" fill="#dcfaee" d="M 171.5,50.5 C 171.897,49.475 172.563,49.3083 173.5,50C 172.906,50.4643 172.239,50.631 171.5,50.5 Z"/></g>
<g><path style="opacity:0.027" fill="#dcfaee" d="M 168.5,51.5 C 168.897,50.475 169.563,50.3083 170.5,51C 169.906,51.4643 169.239,51.631 168.5,51.5 Z"/></g>
<g><path style="opacity:0.027" fill="#dcfaee" d="M 165.5,52.5 C 165.897,51.475 166.563,51.3083 167.5,52C 166.906,52.4643 166.239,52.631 165.5,52.5 Z"/></g>
<g><path style="opacity:0.02" fill="#dcfaee" d="M 162.5,53.5 C 162.897,52.475 163.563,52.3083 164.5,53C 163.906,53.4643 163.239,53.631 162.5,53.5 Z"/></g>
<g><path style="opacity:0.02" fill="#ddfaef" d="M 159.5,54.5 C 159.897,53.475 160.563,53.3083 161.5,54C 160.906,54.4643 160.239,54.631 159.5,54.5 Z"/></g>
<g><path style="opacity:0.035" fill="#dbfaee" d="M 157.5,54.5 C 158.833,55.1667 158.833,55.1667 157.5,54.5 Z"/></g>
<g><path style="opacity:0.02" fill="#ddfaef" d="M 154.5,56.5 C 154.897,55.475 155.563,55.3083 156.5,56C 155.906,56.4643 155.239,56.631 154.5,56.5 Z"/></g>
<g><path style="opacity:1" fill="#696a6a" d="M 122.5,54.5 C 129.865,53.7653 135.699,56.432 140,62.5C 143.475,78.0229 137.308,85.1895 121.5,84C 111.277,78.7051 108.777,70.8718 114,60.5C 116.671,58.0976 119.505,56.0976 122.5,54.5 Z"/></g>
<g><path style="opacity:0.035" fill="#dbfaee" d="M 152.5,56.5 C 153.833,57.1667 153.833,57.1667 152.5,56.5 Z"/></g>
<g><path style="opacity:0.02" fill="#ddf9ef" d="M 149.5,58.5 C 149.897,57.475 150.563,57.3083 151.5,58C 150.906,58.4643 150.239,58.631 149.5,58.5 Z"/></g>
<g><path style="opacity:0.02" fill="#ddfaef" d="M 147.5,59.5 C 147.842,58.6618 148.508,58.3284 149.5,58.5C 149.158,59.3382 148.492,59.6716 147.5,59.5 Z"/></g>
<g><path style="opacity:0.02" fill="#dcfaee" d="M 147.5,59.5 C 147.103,60.525 146.437,60.6917 145.5,60C 146.094,59.5357 146.761,59.369 147.5,59.5 Z"/></g>
<g><path style="opacity:0.035" fill="#dbfaee" d="M 143.5,60.5 C 144.833,61.1667 144.833,61.1667 143.5,60.5 Z"/></g>
<g><path style="opacity:1" fill="#f5f9f8" d="M 122.5,61.5 C 131.657,60.4892 135.49,64.4892 134,73.5C 128.159,80.3944 122.825,80.0611 118,72.5C 117.319,67.8713 118.819,64.2046 122.5,61.5 Z"/></g>
<g><path style="opacity:0.035" fill="#dbfaee" d="M 141.5,61.5 C 142.833,62.1667 142.833,62.1667 141.5,61.5 Z"/></g>
<g><path style="opacity:0.02" fill="#dcf7ec" d="M 141.5,63.5 C 142.833,64.1667 142.833,64.1667 141.5,63.5 Z"/></g>
<g><path style="opacity:1" fill="#e3faf2" d="M 292.5,63.5 C 293.497,62.2875 294.497,62.4542 295.5,64C 300.833,64.3333 306.167,64.6667 311.5,65C 313.43,67.2583 314.93,69.7583 316,72.5C 317.558,86.4318 311.391,91.7651 297.5,88.5C 297.667,110.169 297.5,131.836 297,153.5C 296.832,124.33 296.332,95.3304 295.5,66.5C 294.833,65.1667 293.833,64.1667 292.5,63.5 Z"/></g>
<g><path style="opacity:0.035" fill="#dbf6eb" d="M 285.5,65.5 C 286.833,66.1667 286.833,66.1667 285.5,65.5 Z"/></g>
<g><path style="opacity:1" fill="#242021" d="M 289.5,63.5 C 289.833,63.5 290.167,63.5 290.5,63.5C 291.167,63.5 291.833,63.5 292.5,63.5C 293.833,64.1667 294.833,65.1667 295.5,66.5C 295.81,97.1981 295.477,127.865 294.5,158.5C 294.5,158.833 294.5,159.167 294.5,159.5C 288.019,168.44 279.352,171.44 268.5,168.5C 268.158,167.662 267.492,167.328 266.5,167.5C 264.5,164.833 262.167,162.5 259.5,160.5C 259.5,160.167 259.5,159.833 259.5,159.5C 259.108,157.821 258.608,156.154 258,154.5C 257.667,136.5 257.333,118.5 257,100.5C 253.128,92.4824 247.294,90.6491 239.5,95C 237.46,97.1851 236.126,99.6851 235.5,102.5C 235.5,127.5 235.5,152.5 235.5,177.5C 270.492,176.793 305.492,176.959 340.5,178C 348.809,179.604 356.809,182.104 364.5,185.5C 364.5,186.167 364.833,186.5 365.5,186.5C 374.737,192.401 383.07,199.401 390.5,207.5C 390.833,207.5 391.167,207.5 391.5,207.5C 394.642,213.112 397.809,218.779 401,224.5C 402.674,228.021 403.84,231.687 404.5,235.5C 405.812,239.416 406.812,243.416 407.5,247.5C 408.292,296.756 384.625,326.589 336.5,337C 331.5,337.667 326.5,337.667 321.5,337C 314.443,335.319 307.443,333.486 300.5,331.5C 298.491,329.935 296.157,328.935 293.5,328.5C 291.254,327.545 288.921,326.878 286.5,326.5C 285.22,325.069 283.553,324.402 281.5,324.5C 281.158,323.662 280.492,323.328 279.5,323.5C 278.22,322.069 276.553,321.402 274.5,321.5C 274.158,320.662 273.492,320.328 272.5,320.5C 271.791,319.596 270.791,319.263 269.5,319.5C 269.158,318.662 268.492,318.328 267.5,318.5C 266.791,317.596 265.791,317.263 264.5,317.5C 264.5,317.167 264.5,316.833 264.5,316.5C 252.678,310.213 240.011,307.379 226.5,308C 205.905,313.298 185.905,320.298 166.5,329C 157.95,332.073 149.283,334.739 140.5,337C 129.893,338.009 119.56,336.842 109.5,333.5C 89.2873,326.29 73.9539,313.29 63.5,294.5C 63.0652,291.843 62.0652,289.509 60.5,287.5C 48.6031,253.481 55.2698,223.647 80.5,198C 92.6606,187.587 106.661,180.921 122.5,178C 156.738,177.83 190.905,177.33 225,176.5C 225.333,176.833 225.667,177.167 226,177.5C 226.5,151.502 226.667,125.502 226.5,99.5C 227.167,99.5 227.5,99.1667 227.5,98.5C 228.58,96.0038 229.914,93.6705 231.5,91.5C 231.5,91.1667 231.5,90.8333 231.5,90.5C 233.167,89.5 234.5,88.1667 235.5,86.5C 244.481,82.1628 252.815,83.1628 260.5,89.5C 260.5,89.8333 260.5,90.1667 260.5,90.5C 262.424,92.695 264.091,95.0283 265.5,97.5C 265.333,115.836 265.5,134.17 266,152.5C 267.99,158.578 272.157,161.245 278.5,160.5C 283.614,159.053 286.614,155.72 287.5,150.5C 287.333,122.165 287.5,93.8314 288,65.5C 288.717,64.9558 289.217,64.2891 289.5,63.5 Z"/></g>
<g><path style="opacity:1" fill="#696969" d="M 369.5,96.5 C 368.833,96.5 368.5,96.1667 368.5,95.5C 368.343,94.1266 368.51,92.7932 369,91.5C 370.685,89.9825 372.185,88.3159 373.5,86.5C 372.185,84.6841 370.685,83.0175 369,81.5C 367.833,77.3333 369.333,75.8333 373.5,77C 375.64,77.9733 377.307,79.4733 378.5,81.5C 380.316,80.1851 381.983,78.6851 383.5,77C 387.667,75.8333 389.167,77.3333 388,81.5C 386.315,83.0175 384.815,84.6841 383.5,86.5C 387.157,88.4798 388.657,91.4798 388,95.5C 386.612,96.5536 385.112,96.7203 383.5,96C 381.983,94.3149 380.316,92.8149 378.5,91.5C 376.684,92.8149 375.017,94.3149 373.5,96C 372.207,96.49 370.873,96.6567 369.5,96.5 Z"/></g>
<g><path style="opacity:0.02" fill="#ddf7ed" d="M 244.5,82.5 C 245.601,81.4017 246.934,81.235 248.5,82C 247.207,82.49 245.873,82.6567 244.5,82.5 Z"/></g>
<g><path style="opacity:0.02" fill="#ddf6ed" d="M 240.5,83.5 C 240.897,82.475 241.563,82.3083 242.5,83C 241.906,83.4643 241.239,83.631 240.5,83.5 Z"/></g>
<g><path style="opacity:0.035" fill="#dbf6eb" d="M 250.5,83.5 C 250.897,82.475 251.563,82.3083 252.5,83C 251.906,83.4643 251.239,83.631 250.5,83.5 Z"/></g>
<g><path style="opacity:0.02" fill="#ddf6eb" d="M 237.5,83.5 C 238.833,84.1667 238.833,84.1667 237.5,83.5 Z"/></g>
<g><path style="opacity:0.02" fill="#ddf6ed" d="M 253.5,84.5 C 253.897,83.475 254.563,83.3083 255.5,84C 254.906,84.4643 254.239,84.631 253.5,84.5 Z"/></g>
<g><path style="opacity:0.02" fill="#ddf7ed" d="M 235.5,84.5 C 236.833,85.1667 236.833,85.1667 235.5,84.5 Z"/></g>
<g><path style="opacity:0.02" fill="#ddf7ed" d="M 235.5,85.5 C 235.5,85.8333 235.5,86.1667 235.5,86.5C 234.83,86.0187 234.83,85.6853 235.5,85.5 Z"/></g>
<g><path style="opacity:0.02" fill="#dcf7ec" d="M 257.5,85.5 C 258.833,86.1667 258.833,86.1667 257.5,85.5 Z"/></g>
<g><path style="opacity:0.02" fill="#ddfaee" d="M 117.5,89.5 C 118.833,90.1667 118.833,90.1667 117.5,89.5 Z"/></g>
<g><path style="opacity:0.02" fill="#ddfaee" d="M 115.5,90.5 C 116.833,91.1667 116.833,91.1667 115.5,90.5 Z"/></g>
<g><path style="opacity:0.02" fill="#ddfaef" d="M 112.5,106.5 C 113.833,107.167 113.833,107.167 112.5,106.5 Z"/></g>
<g><path style="opacity:1" fill="#def6ee" d="M 265.5,97.5 C 266.268,98.2625 266.768,99.2625 267,100.5C 267.499,104.486 267.666,108.486 267.5,112.5C 281.938,110.782 287.438,117.115 284,131.5C 282.954,133.09 281.787,134.59 280.5,136C 276.179,136.499 271.846,136.666 267.5,136.5C 267.334,142.176 267.501,147.843 268,153.5C 270.404,157.567 273.904,159.9 278.5,160.5C 272.157,161.245 267.99,158.578 266,152.5C 265.5,134.17 265.333,115.836 265.5,97.5 Z"/></g>
<g><path style="opacity:1" fill="#d6f9ed" d="M 260.5,89.5 C 268.984,88.507 277.651,88.1736 286.5,88.5C 286.169,109.34 286.503,130.007 287.5,150.5C 286.614,155.72 283.614,159.053 278.5,160.5C 273.904,159.9 270.404,157.567 268,153.5C 267.501,147.843 267.334,142.176 267.5,136.5C 271.846,136.666 276.179,136.499 280.5,136C 281.787,134.59 282.954,133.09 284,131.5C 287.438,117.115 281.938,110.782 267.5,112.5C 267.666,108.486 267.499,104.486 267,100.5C 266.768,99.2625 266.268,98.2625 265.5,97.5C 264.091,95.0283 262.424,92.695 260.5,90.5C 261.833,90.1667 261.833,89.8333 260.5,89.5 Z"/></g>
<g><path style="opacity:1" fill="#676767" d="M 368.5,137.5 C 368.5,138.167 368.833,138.5 369.5,138.5C 373.666,145.684 373.333,152.684 368.5,159.5C 361.277,164.781 353.944,164.781 346.5,159.5C 346.5,159.167 346.5,158.833 346.5,158.5C 342.018,150.657 342.685,143.324 348.5,136.5C 355.415,132.299 362.082,132.632 368.5,137.5 Z"/></g>
<g><path style="opacity:0.964" fill="#d7f9ed" d="M 231.5,90.5 C 230.167,90.8333 230.167,91.1667 231.5,91.5C 229.914,93.6705 228.58,96.0038 227.5,98.5C 226.833,98.5 226.5,98.8333 226.5,99.5C 225.503,119.993 225.169,140.66 225.5,161.5C 203.497,161.667 181.497,161.5 159.5,161C 152.96,154.861 151.793,147.695 156,139.5C 157.419,138.54 158.919,137.707 160.5,137C 181.831,136.5 203.164,136.333 224.5,136.5C 224.5,128.5 224.5,120.5 224.5,112.5C 209.435,115.341 203.602,109.341 207,94.5C 207.707,92.9194 208.54,91.4194 209.5,90C 217.015,87.2994 224.349,87.466 231.5,90.5 Z"/></g>
<g><path style="opacity:0.962" fill="#d7f7ed" d="M 259.5,159.5 C 258.167,159.833 258.167,160.167 259.5,160.5C 252.098,161.827 244.598,161.827 237,160.5C 236.5,152.507 236.334,144.507 236.5,136.5C 242.5,136.5 248.5,136.5 254.5,136.5C 254.5,128.5 254.5,120.5 254.5,112.5C 248.907,112.193 243.407,112.527 238,113.5C 236.907,109.831 236.074,106.164 235.5,102.5C 236.126,99.6851 237.46,97.1851 239.5,95C 247.294,90.6491 253.128,92.4824 257,100.5C 257.333,118.5 257.667,136.5 258,154.5C 258.608,156.154 259.108,157.821 259.5,159.5 Z"/></g>
<g><path style="opacity:0.946" fill="#d6f9ed" d="M 368.5,137.5 C 380.993,136.34 393.66,136.173 406.5,137C 409.427,141.52 412.093,146.187 414.5,151C 413.978,155.058 411.978,158.058 408.5,160C 395.092,160.813 381.758,160.647 368.5,159.5C 373.333,152.684 373.666,145.684 369.5,138.5C 368.833,138.5 368.5,138.167 368.5,137.5 Z"/></g>
<g><path style="opacity:1" fill="#707271" d="M 59.5,136.5 C 62.5184,136.335 65.5184,136.502 68.5,137C 69.9348,139.267 69.6015,141.267 67.5,143C 63.1628,144.418 59.8295,143.252 57.5,139.5C 58.1925,138.482 58.8592,137.482 59.5,136.5 Z"/></g>
<g><path style="opacity:1" fill="#6f7170" d="M 74.5,136.5 C 91.17,136.333 107.837,136.5 124.5,137C 125.935,139.267 125.602,141.267 123.5,143C 107.5,143.667 91.5,143.667 75.5,143C 73.3162,141.102 72.9829,138.936 74.5,136.5 Z"/></g>
<g><path style="opacity:0.02" fill="#ddf7ed" d="M 70.5,138.5 C 71.2389,138.369 71.9056,138.536 72.5,139C 71.1667,139.667 71.1667,140.333 72.5,141C 70.9387,141.188 70.272,140.355 70.5,138.5 Z"/></g>
<g><path style="opacity:0.02" fill="#ddf7ed" d="M 126.5,140.5 C 127.833,141.167 127.833,141.167 126.5,140.5 Z"/></g>
<g><path style="opacity:1" fill="#d6f7ed" d="M 353.5,140.5 C 362.658,138.835 366.825,142.501 366,151.5C 361.814,158.538 356.814,159.205 351,153.5C 348.606,148.527 349.44,144.194 353.5,140.5 Z"/></g>
<g><path style="opacity:0.02" fill="#ddfaee" d="M 245.5,162.5 C 246.833,163.167 246.833,163.167 245.5,162.5 Z"/></g>
<g><path style="opacity:0.02" fill="#ddf7ed" d="M 259.5,162.5 C 260.833,163.167 260.833,163.167 259.5,162.5 Z"/></g>
<g><path style="opacity:0.02" fill="#dcf8ec" d="M 262.5,165.5 C 261.833,164.167 261.833,164.167 262.5,165.5 Z"/></g>
<g><path style="opacity:0.02" fill="#ddf8ec" d="M 262.5,165.5 C 263.833,166.167 263.833,166.167 262.5,165.5 Z"/></g>
<g><path style="opacity:0.02" fill="#dcf7ec" d="M 266.5,167.5 C 265.833,168.167 265.833,168.167 266.5,167.5 Z"/></g>
<g><path style="opacity:0.02" fill="#dcf6ec" d="M 268.5,168.5 C 267.833,169.167 267.833,169.167 268.5,168.5 Z"/></g>
<g><path style="opacity:0.035" fill="#dbf6eb" d="M 269.5,169.5 C 270.833,170.167 270.833,170.167 269.5,169.5 Z"/></g>
<g><path style="opacity:0.034" fill="#dcf6ec" d="M 272.5,171.5 C 275.304,170.362 278.304,170.195 281.5,171C 278.518,171.498 275.518,171.665 272.5,171.5 Z"/></g>
<g><path style="opacity:0.02" fill="#dcf7eb" d="M 247.5,174.5 C 248.833,175.167 248.833,175.167 247.5,174.5 Z"/></g>
<g><path style="opacity:0.02" fill="#dcf7eb" d="M 280.5,174.5 C 281.833,175.167 281.833,175.167 280.5,174.5 Z"/></g>
<g><path style="opacity:0.994" fill="#d7f9ed" d="M 364.5,185.5 C 385.67,184.172 407.004,184.172 428.5,185.5C 430.034,190.103 431.367,194.769 432.5,199.5C 432.058,200.739 431.391,201.739 430.5,202.5C 429.504,202.414 428.671,202.748 428,203.5C 427.503,206.146 427.336,208.813 427.5,211.5C 426.686,209.369 426.186,207.036 426,204.5C 425.506,206.134 425.34,207.801 425.5,209.5C 414.828,209.667 404.161,209.5 393.5,209C 392.956,208.283 392.289,207.783 391.5,207.5C 391.167,206.167 390.833,206.167 390.5,207.5C 383.07,199.401 374.737,192.401 365.5,186.5C 364.833,186.5 364.5,186.167 364.5,185.5 Z"/></g>
<g><path style="opacity:1" fill="#e5efeb" d="M 336.5,186.5 C 276.86,187.004 217.193,187.837 157.5,189C 218.335,189.167 279.001,189.667 339.5,190.5C 267.469,190.019 195.469,190.519 123.5,192C 93.3773,201.122 74.544,220.956 67,251.5C 66.8292,259.677 66.3292,267.677 65.5,275.5C 58.8915,243.484 68.5582,217.65 94.5,198C 104.259,191.635 114.926,187.635 126.5,186C 196.57,185.17 266.57,185.337 336.5,186.5 Z"/></g>
<g><path style="opacity:1" fill="#d6f6ec" d="M 336.5,186.5 C 345.966,187.543 354.632,190.543 362.5,195.5C 355.101,192.687 347.435,191.02 339.5,190.5C 279.001,189.667 218.335,189.167 157.5,189C 217.193,187.837 276.86,187.004 336.5,186.5 Z"/></g>
<g><path style="opacity:1" fill="#ddccbf" d="M 339.5,190.5 C 347.435,191.02 355.101,192.687 362.5,195.5C 383.021,207.223 395.187,224.89 399,248.5C 400.33,291.489 380.164,317.989 338.5,328C 325.225,329.848 312.558,327.848 300.5,322C 285.994,315.609 271.328,309.609 256.5,304C 242.701,298.929 228.701,298.262 214.5,302C 192.756,309.803 171.09,317.803 149.5,326C 107.493,332.495 79.4926,315.662 65.5,275.5C 66.3292,267.677 66.8292,259.677 67,251.5C 74.544,220.956 93.3773,201.122 123.5,192C 195.469,190.519 267.469,190.019 339.5,190.5 Z"/></g>
<g><path style="opacity:1" fill="#242021" d="M 258.5,204.5 C 259.464,210.739 257.131,215.239 251.5,218C 238.838,218.5 226.171,218.667 213.5,218.5C 204.647,215.469 201.813,209.469 205,200.5C 206.938,197.894 209.438,196.061 212.5,195C 224.833,194.333 237.167,194.333 249.5,195C 254.765,196.096 257.765,199.263 258.5,204.5 Z"/></g>
<g><path style="opacity:1" fill="#f9f9f9" d="M 249.5,204.5 C 238.674,205.33 227.674,205.83 216.5,206C 215.307,207.095 213.973,207.928 212.5,208.5C 211.201,206.847 211.534,205.347 213.5,204C 225.674,203.174 237.674,203.34 249.5,204.5 Z"/></g>
<g><path style="opacity:1" fill="#666666" d="M 25.5,202.5 C 27.1439,202.286 28.6439,202.62 30,203.5C 30.8214,206.554 30.6548,209.554 29.5,212.5C 25.709,213.821 24.0423,212.321 24.5,208C 24.5811,206.076 24.9144,204.243 25.5,202.5 Z"/></g>
<g><path style="opacity:1" fill="#676767" d="M 430.5,202.5 C 431.496,202.414 432.329,202.748 433,203.5C 433.667,206.167 433.667,208.833 433,211.5C 431.031,214.124 429.198,214.124 427.5,211.5C 427.336,208.813 427.503,206.146 428,203.5C 428.671,202.748 429.504,202.414 430.5,202.5 Z"/></g>
<g><path style="opacity:1" fill="#221e1f" d="M 350.5,222.5 C 350.566,234.405 344.899,241.739 333.5,244.5C 319.868,244.367 312.535,237.533 311.5,224C 314.863,207.482 324.53,202.148 340.5,208C 345.696,211.562 349.029,216.395 350.5,222.5 Z"/></g>
<g><path style="opacity:1" fill="#818080" d="M 249.5,204.5 C 250.887,206.489 250.553,208.322 248.5,210C 236.833,210.667 225.167,210.667 213.5,210C 212.944,209.617 212.611,209.117 212.5,208.5C 213.973,207.928 215.307,207.095 216.5,206C 227.674,205.83 238.674,205.33 249.5,204.5 Z"/></g>
<g><path style="opacity:1" fill="#211b1d" d="M 153.5,222.5 C 153.5,226.833 153.5,231.167 153.5,235.5C 154.833,235.5 156.167,235.5 157.5,235.5C 163.842,235.334 170.175,235.5 176.5,236C 177,236.5 177.5,237 178,237.5C 178.498,240.817 178.665,244.15 178.5,247.5C 178.666,256.839 178.5,266.173 178,275.5C 177.5,276 177,276.5 176.5,277C 168.841,277.5 161.174,277.666 153.5,277.5C 153.666,285.174 153.5,292.841 153,300.5C 152.5,301 152,301.5 151.5,302C 142.173,302.5 132.839,302.666 123.5,302.5C 120.15,302.665 116.817,302.498 113.5,302C 113,301.5 112.5,301 112,300.5C 111.5,294.175 111.334,287.842 111.5,281.5C 111.5,280.167 111.5,278.833 111.5,277.5C 107.5,277.5 103.5,277.5 99.5,277.5C 95.8183,277.665 92.1516,277.499 88.5,277C 88,276.5 87.5,276 87,275.5C 86.3333,262.833 86.3333,250.167 87,237.5C 87.5,237 88,236.5 88.5,236C 96.1594,235.5 103.826,235.334 111.5,235.5C 111.334,227.826 111.5,220.159 112,212.5C 112.5,212 113,211.5 113.5,211C 126.167,210.333 138.833,210.333 151.5,211C 152,211.5 152.5,212 153,212.5C 153.498,215.817 153.665,219.15 153.5,222.5 Z"/></g>
<g><path style="opacity:1" fill="#6d6e6e" d="M 32.5,212.5 C 34.8568,212.337 37.1902,212.503 39.5,213C 42.1667,215 42.1667,217 39.5,219C 36.8333,219.667 34.1667,219.667 31.5,219C 30.1443,216.586 30.4776,214.419 32.5,212.5 Z"/></g>
<g><path style="opacity:1" fill="#e9e9ec" d="M 334.5,214.5 C 326.338,217.137 322.338,222.804 322.5,231.5C 317.519,223.982 319.186,218.148 327.5,214C 329.929,213.297 332.262,213.463 334.5,214.5 Z"/></g>
<g><path style="opacity:1" fill="#6d6e6e" d="M 418.5,212.5 C 420.857,212.337 423.19,212.503 425.5,213C 428.167,215 428.167,217 425.5,219C 422.833,219.667 420.167,219.667 417.5,219C 416.144,216.586 416.478,214.419 418.5,212.5 Z"/></g>
<g><path style="opacity:1" fill="#6d6d6d" d="M 435.5,212.5 C 439.325,211.789 442.325,212.955 444.5,216C 443.833,217 443.167,218 442.5,219C 439.833,219.667 437.167,219.667 434.5,219C 432.079,216.531 432.412,214.365 435.5,212.5 Z"/></g>
<g><path style="opacity:1" fill="#6b6b6b" d="M 15.5,212.5 C 17.8568,212.337 20.1902,212.503 22.5,213C 25.1667,215 25.1667,217 22.5,219C 20.1667,219.667 17.8333,219.667 15.5,219C 12.9387,216.844 12.9387,214.677 15.5,212.5 Z"/></g>
<g><path style="opacity:1" fill="#575ca1" d="M 334.5,214.5 C 341.522,218.317 343.355,223.984 340,231.5C 335.909,235.305 331.076,236.472 325.5,235C 324.29,233.961 323.29,232.794 322.5,231.5C 322.338,222.804 326.338,217.137 334.5,214.5 Z"/></g>
<g><path style="opacity:1" fill="#f3f7f6" d="M 145.5,219.5 C 145.5,220.833 145.5,222.167 145.5,223.5C 138.5,223.5 131.5,223.5 124.5,223.5C 123.508,231.316 123.174,239.316 123.5,247.5C 115.316,247.174 107.316,247.508 99.5,248.5C 98.5093,254.979 98.176,261.646 98.5,268.5C 97.5,268.5 96.5,268.5 95.5,268.5C 95.5,260.167 95.5,251.833 95.5,243.5C 102.841,243.666 110.174,243.5 117.5,243C 118.381,242.292 119.047,241.458 119.5,240.5C 120.491,233.687 120.825,226.687 120.5,219.5C 128.833,219.5 137.167,219.5 145.5,219.5 Z"/></g>
<g><path style="opacity:1" fill="#818080" d="M 258.5,204.5 C 259.648,208.981 259.815,213.648 259,218.5C 258.167,219.333 257.333,220.167 256.5,221C 243.167,221.667 229.833,221.667 216.5,221C 215.058,220.623 214.058,219.79 213.5,218.5C 226.171,218.667 238.838,218.5 251.5,218C 257.131,215.239 259.464,210.739 258.5,204.5 Z"/></g>
<g><path style="opacity:1" fill="#646464" d="M 25.5,219.5 C 27.1439,219.286 28.6439,219.62 30,220.5C 31.1163,224.288 30.4496,227.622 28,230.5C 27,229.833 26,229.167 25,228.5C 24.2642,225.408 24.4309,222.408 25.5,219.5 Z"/></g>
<g><path style="opacity:1" fill="#c5c4c4" d="M 145.5,219.5 C 137.167,219.5 128.833,219.5 120.5,219.5C 120.825,226.687 120.491,233.687 119.5,240.5C 119.5,233.167 119.5,225.833 119.5,218.5C 128.349,218.174 137.016,218.507 145.5,219.5 Z"/></g>
<g><path style="opacity:1" fill="#6d6d6d" d="M 429.5,218.5 C 432.795,219.136 434.128,221.136 433.5,224.5C 433.617,229.766 431.617,231.099 427.5,228.5C 425.815,224.589 426.482,221.255 429.5,218.5 Z"/></g>
<g><path style="opacity:1" fill="#1b9b77" d="M 124.5,223.5 C 131.5,223.5 138.5,223.5 145.5,223.5C 145.334,229.509 145.501,235.509 146,241.5C 146.5,242 147,242.5 147.5,243C 150.817,243.498 154.15,243.665 157.5,243.5C 157.5,245.167 157.5,246.833 157.5,248.5C 161.833,248.5 166.167,248.5 170.5,248.5C 170.5,255.5 170.5,262.5 170.5,269.5C 162.826,269.334 155.159,269.5 147.5,270C 147,270.5 146.5,271 146,271.5C 145.5,279.159 145.334,286.826 145.5,294.5C 138.5,294.5 131.5,294.5 124.5,294.5C 124.5,294.167 124.5,293.833 124.5,293.5C 124.5,289.5 124.5,285.5 124.5,281.5C 123.167,281.5 121.833,281.5 120.5,281.5C 120.167,281.5 119.833,281.5 119.5,281.5C 119.665,278.15 119.498,274.817 119,271.5C 118.5,271 118,270.5 117.5,270C 111.509,269.501 105.509,269.334 99.5,269.5C 99.5,262.5 99.5,255.5 99.5,248.5C 107.833,248.5 116.167,248.5 124.5,248.5C 124.5,240.167 124.5,231.833 124.5,223.5 Z"/></g>
<g><path style="opacity:1" fill="#239976" d="M 153.5,222.5 C 154.833,222.5 156.167,222.5 157.5,222.5C 157.5,226.833 157.5,231.167 157.5,235.5C 156.167,235.5 154.833,235.5 153.5,235.5C 153.5,231.167 153.5,226.833 153.5,222.5 Z"/></g>
<g><path style="opacity:1" fill="#595da2" d="M 350.5,222.5 C 353.392,228.613 352.892,234.613 349,240.5C 344.372,244.666 339.206,246 333.5,244.5C 344.899,241.739 350.566,234.405 350.5,222.5 Z"/></g>
<g><path style="opacity:0.954" fill="#d6f9ed" d="M 409.5,257.5 C 409.678,253.878 409.011,250.544 407.5,247.5C 406.812,243.416 405.812,239.416 404.5,235.5C 415.245,233.558 426.245,232.891 437.5,233.5C 437.5,241.5 437.5,249.5 437.5,257.5C 428.167,257.5 418.833,257.5 409.5,257.5 Z"/></g>
<g><path style="opacity:1" fill="#221e1f" d="M 318.5,254.5 C 318.591,266.329 312.925,273.663 301.5,276.5C 282.706,274.592 276.206,264.592 282,246.5C 292.627,234.872 303.627,234.539 315,245.5C 316.664,248.327 317.83,251.327 318.5,254.5 Z"/></g>
<g><path style="opacity:1" fill="#211d1f" d="M 381.5,259.5 C 379.569,268.43 374.235,274.096 365.5,276.5C 349.028,275.528 341.861,266.861 344,250.5C 349.393,238.889 358.226,235.056 370.5,239C 378.74,243.309 382.406,250.143 381.5,259.5 Z"/></g>
<g><path style="opacity:1" fill="#f3f3f3" d="M 158.5,243.5 C 162.5,243.5 166.5,243.5 170.5,243.5C 170.5,244.833 170.5,246.167 170.5,247.5C 166.5,247.5 162.5,247.5 158.5,247.5C 158.5,246.167 158.5,244.833 158.5,243.5 Z"/></g>
<g><path style="opacity:1" fill="#aebab7" d="M 95.5,243.5 C 95.5,251.833 95.5,260.167 95.5,268.5C 96.5,268.5 97.5,268.5 98.5,268.5C 98.176,261.646 98.5093,254.979 99.5,248.5C 99.5,255.5 99.5,262.5 99.5,269.5C 97.8333,269.5 96.1667,269.5 94.5,269.5C 94.1736,260.651 94.507,251.984 95.5,243.5 Z"/></g>
<g><path style="opacity:1" fill="#eaeceb" d="M 302.5,246.5 C 294.323,249.179 290.323,254.845 290.5,263.5C 285.519,255.955 287.186,250.122 295.5,246C 298.039,245.204 300.372,245.371 302.5,246.5 Z"/></g>
<g><path style="opacity:1" fill="#f2f0ec" d="M 365.5,246.5 C 357.592,249.296 353.925,254.962 354.5,263.5C 349.625,256.412 350.958,250.579 358.5,246C 361.039,245.204 363.372,245.371 365.5,246.5 Z"/></g>
<g><path style="opacity:1" fill="#81c8b5" d="M 124.5,223.5 C 124.5,231.833 124.5,240.167 124.5,248.5C 116.167,248.5 107.833,248.5 99.5,248.5C 107.316,247.508 115.316,247.174 123.5,247.5C 123.174,239.316 123.508,231.316 124.5,223.5 Z"/></g>
<g><path style="opacity:1" fill="#83c7b4" d="M 157.5,243.5 C 157.833,243.5 158.167,243.5 158.5,243.5C 158.5,244.833 158.5,246.167 158.5,247.5C 162.5,247.5 166.5,247.5 170.5,247.5C 170.5,247.833 170.5,248.167 170.5,248.5C 166.167,248.5 161.833,248.5 157.5,248.5C 157.5,246.833 157.5,245.167 157.5,243.5 Z"/></g>
<g><path style="opacity:1" fill="#1d9c78" d="M 302.5,246.5 C 305.056,247.543 307.223,249.21 309,251.5C 311.334,263.497 306.501,268.664 294.5,267C 292.676,266.34 291.343,265.173 290.5,263.5C 290.323,254.845 294.323,249.179 302.5,246.5 Z"/></g>
<g><path style="opacity:1" fill="#eebd54" d="M 365.5,246.5 C 372.421,248.671 374.921,253.337 373,260.5C 369.903,267.132 364.736,269.299 357.5,267C 356.29,265.961 355.29,264.794 354.5,263.5C 353.925,254.962 357.592,249.296 365.5,246.5 Z"/></g>
<g><path style="opacity:1" fill="#edbd55" d="M 365.5,276.5 C 374.235,274.096 379.569,268.43 381.5,259.5C 382.302,258.048 382.802,256.382 383,254.5C 386.779,267.609 381.946,275.276 368.5,277.5C 367.274,277.48 366.274,277.147 365.5,276.5 Z"/></g>
<g><path style="opacity:1" fill="#221e1f" d="M 350.5,286.5 C 349.91,298.411 343.91,305.744 332.5,308.5C 316.605,307.095 309.771,298.428 312,282.5C 318.793,268.955 328.959,265.788 342.5,273C 346.847,276.531 349.514,281.031 350.5,286.5 Z"/></g>
<g><path style="opacity:1" fill="#299e7a" d="M 318.5,254.5 C 323.255,265.496 319.922,272.996 308.5,277C 305.961,277.796 303.628,277.629 301.5,276.5C 312.925,273.663 318.591,266.329 318.5,254.5 Z"/></g>
<g><path style="opacity:1" fill="#f0eded" d="M 334.5,278.5 C 325.835,280.837 321.835,286.503 322.5,295.5C 317.595,288.381 318.929,282.547 326.5,278C 329.367,277.199 332.034,277.366 334.5,278.5 Z"/></g>
<g><path style="opacity:1" fill="#1a9a75" d="M 99.5,277.5 C 103.5,277.5 107.5,277.5 111.5,277.5C 111.5,278.833 111.5,280.167 111.5,281.5C 107.5,281.5 103.5,281.5 99.5,281.5C 99.5,280.167 99.5,278.833 99.5,277.5 Z"/></g>
<g><path style="opacity:1" fill="#9c1c32" d="M 334.5,278.5 C 340.668,281.174 342.834,285.84 341,292.5C 338.037,298.561 333.203,300.728 326.5,299C 324.676,298.34 323.343,297.173 322.5,295.5C 321.835,286.503 325.835,280.837 334.5,278.5 Z"/></g>
<g><path style="opacity:1" fill="#ecedec" d="M 119.5,281.5 C 119.833,281.5 120.167,281.5 120.5,281.5C 121.209,282.404 122.209,282.737 123.5,282.5C 123.185,286.371 123.518,290.038 124.5,293.5C 124.5,293.833 124.5,294.167 124.5,294.5C 122.833,294.5 121.167,294.5 119.5,294.5C 119.5,290.167 119.5,285.833 119.5,281.5 Z"/></g>
<g><path style="opacity:0.976" fill="#d6f9ed" d="M 408.5,282.5 C 413.223,281.553 417.056,282.886 420,286.5C 421.545,291.047 421.879,295.713 421,300.5C 420.315,303.057 418.815,304.891 416.5,306C 410.509,306.499 404.509,306.666 398.5,306.5C 402.83,298.823 406.164,290.823 408.5,282.5 Z"/></g>
<g><path style="opacity:1" fill="#95d3c1" d="M 120.5,281.5 C 121.833,281.5 123.167,281.5 124.5,281.5C 124.5,285.5 124.5,289.5 124.5,293.5C 123.518,290.038 123.185,286.371 123.5,282.5C 122.209,282.737 121.209,282.404 120.5,281.5 Z"/></g>
<g><path style="opacity:1" fill="#9abca7" d="M 182.5,281.5 C 174.684,282.492 166.684,282.826 158.5,282.5C 158.826,290.684 158.492,298.684 157.5,306.5C 157.5,298.167 157.5,289.833 157.5,281.5C 165.833,281.5 174.167,281.5 182.5,281.5 Z"/></g>
<g><path style="opacity:0.963" fill="#decdc0" d="M 407.5,247.5 C 409.011,250.544 409.678,253.878 409.5,257.5C 410.426,265.854 410.092,274.187 408.5,282.5C 406.164,290.823 402.83,298.823 398.5,306.5C 391.787,316.88 383.12,325.214 372.5,331.5C 348.413,344.589 324.413,344.589 300.5,331.5C 307.443,333.486 314.443,335.319 321.5,337C 326.5,337.667 331.5,337.667 336.5,337C 384.625,326.589 408.292,296.756 407.5,247.5 Z"/></g>
<g><path style="opacity:1" fill="#696a6a" d="M 60.5,287.5 C 62.0652,289.509 63.0652,291.843 63.5,294.5C 57.1672,294.18 56.1672,291.846 60.5,287.5 Z"/></g>
<g><path style="opacity:1" fill="#9b1c30" d="M 350.5,286.5 C 354.267,294.493 352.601,301.326 345.5,307C 341.27,308.29 336.936,308.79 332.5,308.5C 343.91,305.744 349.91,298.411 350.5,286.5 Z"/></g>
<g><path style="opacity:1" fill="#1a9b76" d="M 178.5,247.5 C 179.833,247.5 181.167,247.5 182.5,247.5C 182.5,258.833 182.5,270.167 182.5,281.5C 174.167,281.5 165.833,281.5 157.5,281.5C 157.5,289.833 157.5,298.167 157.5,306.5C 146.167,306.5 134.833,306.5 123.5,306.5C 123.5,305.167 123.5,303.833 123.5,302.5C 132.839,302.666 142.173,302.5 151.5,302C 152,301.5 152.5,301 153,300.5C 153.5,292.841 153.666,285.174 153.5,277.5C 161.174,277.666 168.841,277.5 176.5,277C 177,276.5 177.5,276 178,275.5C 178.5,266.173 178.666,256.839 178.5,247.5 Z"/></g>
<g><path style="opacity:0.958" fill="#ddcdc0" d="M 264.5,316.5 C 263.504,316.414 262.671,316.748 262,317.5C 251.667,312.25 240.834,310.75 229.5,313C 207.667,319.278 186.333,326.944 165.5,336C 146.257,343.903 127.59,343.069 109.5,333.5C 119.56,336.842 129.893,338.009 140.5,337C 149.283,334.739 157.95,332.073 166.5,329C 185.905,320.298 205.905,313.298 226.5,308C 240.011,307.379 252.678,310.213 264.5,316.5 Z"/></g>
<g><path style="opacity:0.02" fill="#ddfdf4" d="M 264.5,317.5 C 263.833,318.167 263.833,318.167 264.5,317.5 Z"/></g>
<g><path style="opacity:0.02" fill="#dcfcf4" d="M 267.5,318.5 C 266.833,319.167 266.833,319.167 267.5,318.5 Z"/></g>
<g><path style="opacity:0.02" fill="#ddfdf4" d="M 269.5,319.5 C 268.833,320.167 268.833,320.167 269.5,319.5 Z"/></g>
<g><path style="opacity:0.02" fill="#ddfcf4" d="M 272.5,320.5 C 272.103,321.525 271.437,321.692 270.5,321C 271.094,320.536 271.761,320.369 272.5,320.5 Z"/></g>
<g><path style="opacity:0.02" fill="#dcfdf3" d="M 274.5,321.5 C 273.833,322.167 273.833,322.167 274.5,321.5 Z"/></g>
<g><path style="opacity:0.02" fill="#ddfcf3" d="M 275.5,322.5 C 276.833,323.167 276.833,323.167 275.5,322.5 Z"/></g>
<g><path style="opacity:0.02" fill="#dcfdf4" d="M 279.5,323.5 C 278.833,324.167 278.833,324.167 279.5,323.5 Z"/></g>
<g><path style="opacity:0.02" fill="#dcfbf3" d="M 281.5,324.5 C 280.833,325.167 280.833,325.167 281.5,324.5 Z"/></g>
<g><path style="opacity:0.02" fill="#ddfbf2" d="M 282.5,325.5 C 283.833,326.167 283.833,326.167 282.5,325.5 Z"/></g>
<g><path style="opacity:0.02" fill="#dcfcf4" d="M 286.5,326.5 C 285.833,327.167 285.833,327.167 286.5,326.5 Z"/></g>
<g><path style="opacity:0.02" fill="#ddfbf3" d="M 287.5,327.5 C 288.833,328.167 288.833,328.167 287.5,327.5 Z"/></g>
<g><path style="opacity:0.959" fill="#d6f9ed" d="M 293.5,328.5 C 296.157,328.935 298.491,329.935 300.5,331.5C 324.413,344.589 348.413,344.589 372.5,331.5C 387.848,331.167 403.181,331.501 418.5,332.5C 414.766,340.388 410.432,347.888 405.5,355C 383.833,355.333 362.167,355.667 340.5,356C 334.999,361.169 333.499,367.336 336,374.5C 337.167,377 339,378.833 341.5,380C 356.5,380.333 371.5,380.667 386.5,381C 379.351,389.571 371.351,397.237 362.5,404C 345.926,404.174 329.426,404.674 313,405.5C 312.097,404.299 310.931,403.465 309.5,403C 257.167,402.667 204.833,402.333 152.5,402C 147.47,396.612 146.303,390.446 149,383.5C 149.948,381.43 151.448,379.93 153.5,379C 168.075,378.825 182.575,378.325 197,377.5C 226.762,378.662 256.595,378.828 286.5,378C 293.991,370.669 294.324,363.003 287.5,355C 262.167,354.667 236.833,354.333 211.5,354C 203.675,346.248 203.675,338.582 211.5,331C 238.978,329.916 266.311,329.083 293.5,328.5 Z"/></g>
<g><path style="opacity:0.02" fill="#ddfaef" d="M 194.5,358.5 C 195.833,359.167 195.833,359.167 194.5,358.5 Z"/></g>
<g><path style="opacity:1" fill="#676767" d="M 45.5,357.5 C 46.8734,357.343 48.2068,357.51 49.5,358C 51.0175,359.685 52.6841,361.185 54.5,362.5C 56.3159,361.185 57.9825,359.685 59.5,358C 63.6667,356.833 65.1667,358.333 64,362.5C 62.3149,364.017 60.8149,365.684 59.5,367.5C 60.8149,369.316 62.3149,370.983 64,372.5C 65.1667,376.667 63.6667,378.167 59.5,377C 57.9825,375.315 56.3159,373.815 54.5,372.5C 52.6841,373.815 51.0175,375.315 49.5,377C 45.3333,378.167 43.8333,376.667 45,372.5C 46.6851,370.983 48.1851,369.316 49.5,367.5C 48.1851,365.684 46.6851,364.017 45,362.5C 44.3603,360.735 44.5269,359.068 45.5,357.5 Z"/></g>
<g><path style="opacity:0.02" fill="#ddfaef" d="M 198.5,371.5 C 199.833,372.167 199.833,372.167 198.5,371.5 Z"/></g>
<g><path style="opacity:0.02" fill="#ddfaef" d="M 197.5,375.5 C 198.833,376.167 198.833,376.167 197.5,375.5 Z"/></g>
<g><path style="opacity:0.02" fill="#dcf9ee" d="M 82.5,384.5 C 81.7109,384.217 81.0442,383.717 80.5,383C 81.816,382.472 82.4827,382.972 82.5,384.5 Z"/></g>
<g><path style="opacity:0.02" fill="#dcfaee" d="M 82.5,384.5 C 83.1667,384.5 83.5,384.833 83.5,385.5C 83.1667,385.167 82.8333,384.833 82.5,384.5 Z"/></g>
<g><path style="opacity:0.02" fill="#dcfaee" d="M 83.5,385.5 C 84.1667,385.5 84.5,385.833 84.5,386.5C 84.1667,386.167 83.8333,385.833 83.5,385.5 Z"/></g>
<g><path style="opacity:0.02" fill="#dcfaee" d="M 84.5,386.5 C 85.1667,386.5 85.5,386.833 85.5,387.5C 85.1667,387.167 84.8333,386.833 84.5,386.5 Z"/></g>
<g><path style="opacity:0.02" fill="#dcfaee" d="M 85.5,387.5 C 86.1667,387.5 86.5,387.833 86.5,388.5C 86.1667,388.167 85.8333,387.833 85.5,387.5 Z"/></g>
<g><path style="opacity:0.02" fill="#dcfaee" d="M 86.5,388.5 C 87.1667,388.5 87.5,388.833 87.5,389.5C 87.1667,389.167 86.8333,388.833 86.5,388.5 Z"/></g>
<g><path style="opacity:0.02" fill="#dcfaee" d="M 87.5,389.5 C 88.1667,389.5 88.5,389.833 88.5,390.5C 88.1667,390.167 87.8333,389.833 87.5,389.5 Z"/></g>
<g><path style="opacity:1" fill="#696969" d="M 393.5,387.5 C 394.552,387.351 395.552,387.517 396.5,388C 398.054,389.892 399.888,391.392 402,392.5C 404.333,390.833 406.667,389.167 409,387.5C 412.554,388.599 413.221,390.599 411,393.5C 409.5,395 408,396.5 406.5,398C 408.333,399.833 410.167,401.667 412,403.5C 412.492,404.549 412.326,405.549 411.5,406.5C 409.926,407.631 408.259,407.798 406.5,407C 405,405.5 403.5,404 402,402.5C 400.5,404 399,405.5 397.5,407C 395.741,407.798 394.074,407.631 392.5,406.5C 391.674,405.549 391.508,404.549 392,403.5C 393.833,401.667 395.667,399.833 397.5,398C 395.667,396.167 393.833,394.333 392,392.5C 391.387,390.505 391.887,388.838 393.5,387.5 Z"/></g>
<g><path style="opacity:0.02" fill="#dcfaee" d="M 88.5,390.5 C 89.1667,390.5 89.5,390.833 89.5,391.5C 89.1667,391.167 88.8333,390.833 88.5,390.5 Z"/></g>
<g><path style="opacity:0.02" fill="#dcfaee" d="M 89.5,391.5 C 90.1667,391.5 90.5,391.833 90.5,392.5C 90.1667,392.167 89.8333,391.833 89.5,391.5 Z"/></g>
<g><path style="opacity:0.02" fill="#dcfaee" d="M 90.5,392.5 C 91.1667,392.5 91.5,392.833 91.5,393.5C 91.1667,393.167 90.8333,392.833 90.5,392.5 Z"/></g>
<g><path style="opacity:0.02" fill="#dcfaee" d="M 91.5,393.5 C 92.1667,393.5 92.5,393.833 92.5,394.5C 92.1667,394.167 91.8333,393.833 91.5,393.5 Z"/></g>
<g><path style="opacity:0.02" fill="#dcfaee" d="M 92.5,394.5 C 93.1667,394.5 93.5,394.833 93.5,395.5C 93.1667,395.167 92.8333,394.833 92.5,394.5 Z"/></g>
<g><path style="opacity:0.035" fill="#dbfaee" d="M 93.5,395.5 C 94.1667,395.5 94.5,395.833 94.5,396.5C 94.1667,396.167 93.8333,395.833 93.5,395.5 Z"/></g>
<g><path style="opacity:0.035" fill="#dbfaee" d="M 94.5,396.5 C 95.1667,396.5 95.5,396.833 95.5,397.5C 95.1667,397.167 94.8333,396.833 94.5,396.5 Z"/></g>
<g><path style="opacity:0.035" fill="#dbfaee" d="M 95.5,397.5 C 96.1667,397.5 96.5,397.833 96.5,398.5C 96.1667,398.167 95.8333,397.833 95.5,397.5 Z"/></g>
<g><path style="opacity:0.02" fill="#dcfaef" d="M 96.5,398.5 C 97.1667,398.5 97.5,398.833 97.5,399.5C 97.1667,399.167 96.8333,398.833 96.5,398.5 Z"/></g>
<g><path style="opacity:0.02" fill="#ddf9f0" d="M 97.5,399.5 C 98.8333,400.167 98.8333,400.167 97.5,399.5 Z"/></g>
<g><path style="opacity:0.02" fill="#dcfaee" d="M 100.5,401.5 C 99.8333,400.167 99.8333,400.167 100.5,401.5 Z"/></g>
<g><path style="opacity:0.02" fill="#dcfaee" d="M 100.5,401.5 C 101.167,401.5 101.5,401.833 101.5,402.5C 101.167,402.167 100.833,401.833 100.5,401.5 Z"/></g>
<g><path style="opacity:0.035" fill="#dbfaee" d="M 101.5,402.5 C 102.167,402.5 102.5,402.833 102.5,403.5C 102.167,403.167 101.833,402.833 101.5,402.5 Z"/></g>
<g><path style="opacity:0.02" fill="#dcfaef" d="M 102.5,403.5 C 103.833,404.167 103.833,404.167 102.5,403.5 Z"/></g>
<g><path style="opacity:0.02" fill="#ddf9ef" d="M 105.5,405.5 C 106.833,406.167 106.833,406.167 105.5,405.5 Z"/></g>
<g><path style="opacity:1" fill="#696969" d="M 168.5,439.5 C 159.619,448.805 150.786,448.805 142,439.5C 137.515,429.293 140.348,421.793 150.5,417C 166.371,416.698 172.371,424.198 168.5,439.5 Z"/></g>
<g><path style="opacity:0.937" fill="#d6faed" d="M 315.5,418.5 C 319.084,420.739 322.417,423.406 325.5,426.5C 326.833,427.167 326.833,427.833 325.5,428.5C 282.163,449.715 236.83,455.548 189.5,446C 187.014,441.304 186.848,436.47 189,431.5C 190.543,429.622 192.376,428.122 194.5,427C 233.167,426.667 271.833,426.333 310.5,426C 313.2,424.143 314.866,421.643 315.5,418.5 Z"/></g>
<g><path style="opacity:0.02" fill="#dcf8ed" d="M 171.5,431.5 C 172.833,432.167 172.833,432.167 171.5,431.5 Z"/></g>
<g><path style="opacity:1" fill="#e9f8f3" d="M 150.5,423.5 C 159.658,421.835 163.825,425.501 163,434.5C 158.175,442.061 152.841,442.394 147,435.5C 145.593,430.643 146.76,426.643 150.5,423.5 Z"/></g>
<g><path style="opacity:0.02" fill="#ddf7ed" d="M 170.5,434.5 C 171.525,434.897 171.692,435.563 171,436.5C 170.536,435.906 170.369,435.239 170.5,434.5 Z"/></g>
<g><path style="opacity:0.02" fill="#ddf8ed" d="M 169.5,437.5 C 170.833,438.167 170.833,438.167 169.5,437.5 Z"/></g>
<g><path style="opacity:0.02" fill="#dbf8ed" d="M 168.5,439.5 C 169.239,439.369 169.906,439.536 170.5,440C 169.563,440.692 168.897,440.525 168.5,439.5 Z"/></g>
<g><path style="opacity:0.02" fill="#ddfaef" d="M 171.5,441.5 C 171.897,440.475 172.563,440.308 173.5,441C 172.906,441.464 172.239,441.631 171.5,441.5 Z"/></g>
<g><path style="opacity:0.02" fill="#ddf9ef" d="M 174.5,442.5 C 175.251,441.427 176.251,441.26 177.5,442C 176.552,442.483 175.552,442.649 174.5,442.5 Z"/></g>
<g><path style="opacity:0.02" fill="#dcfaee" d="M 178.5,443.5 C 178.897,442.475 179.563,442.308 180.5,443C 179.906,443.464 179.239,443.631 178.5,443.5 Z"/></g>
<g><path style="opacity:0.027" fill="#dcfaee" d="M 182.5,444.5 C 182.897,443.475 183.563,443.308 184.5,444C 183.906,444.464 183.239,444.631 182.5,444.5 Z"/></g>
<g><path style="opacity:0.02" fill="#dcfaee" d="M 186.5,444.5 C 187.833,445.167 187.833,445.167 186.5,444.5 Z"/></g>
<g><path style="opacity:1" fill="#6f6f6f" d="M 258.5,452.5 C 274.503,452.333 290.503,452.5 306.5,453C 309.033,454.916 309.033,456.916 306.5,459C 290.5,459.667 274.5,459.667 258.5,459C 255.939,456.844 255.939,454.677 258.5,452.5 Z"/></g>
<g><path style="opacity:1" fill="#6f6f6f" d="M 314.5,452.5 C 317.187,452.336 319.854,452.503 322.5,453C 325.167,455 325.167,457 322.5,459C 319.833,459.667 317.167,459.667 314.5,459C 311.939,456.844 311.939,454.677 314.5,452.5 Z"/></g>
</svg>
